<mxfile host="Electron" modified="2024-02-03T09:39:33.113Z" agent="Mozilla/5.0 (Windows NT 10.0; Win64; x64) AppleWebKit/537.36 (KHTML, like Gecko) draw.io/23.0.2 Chrome/120.0.6099.109 Electron/28.1.0 Safari/537.36" etag="nf3rtNb-rqyK0Dhwpa3p" version="23.0.2" type="device">
  <diagram id="prtHgNgQTEPvFCAcTncT" name="Page-1">
    <mxGraphModel dx="1434" dy="2005" grid="1" gridSize="10" guides="1" tooltips="1" connect="1" arrows="1" fold="1" page="1" pageScale="1" pageWidth="827" pageHeight="1169" math="0" shadow="0">
      <root>
        <mxCell id="0" />
        <mxCell id="1" parent="0" />
        <mxCell id="dNxyNK7c78bLwvsdeMH5-19" value="TechBridge Solutions" style="swimlane;html=1;childLayout=stackLayout;resizeParent=1;resizeParentMax=0;horizontal=0;startSize=20;horizontalStack=0;" parent="1" vertex="1">
          <mxGeometry x="24" y="40" width="1386" height="520" as="geometry" />
        </mxCell>
        <mxCell id="dNxyNK7c78bLwvsdeMH5-20" value="Techbridge Internal User (Staff)" style="swimlane;html=1;startSize=20;horizontal=0;" parent="dNxyNK7c78bLwvsdeMH5-19" vertex="1">
          <mxGeometry x="20" width="1366" height="290" as="geometry" />
        </mxCell>
        <mxCell id="zQRQU95U8ZfpVH5es0Fi-9" value="" style="points=[[0.145,0.145,0],[0.5,0,0],[0.855,0.145,0],[1,0.5,0],[0.855,0.855,0],[0.5,1,0],[0.145,0.855,0],[0,0.5,0]];shape=mxgraph.bpmn.event;html=1;verticalLabelPosition=bottom;labelBackgroundColor=#ffffff;verticalAlign=top;align=center;perimeter=ellipsePerimeter;outlineConnect=0;aspect=fixed;outline=standard;symbol=message;" vertex="1" parent="dNxyNK7c78bLwvsdeMH5-20">
          <mxGeometry x="31" y="20" width="79" height="79" as="geometry" />
        </mxCell>
        <mxCell id="zQRQU95U8ZfpVH5es0Fi-10" value="Query &lt;br&gt;submission" style="text;html=1;align=center;verticalAlign=middle;resizable=0;points=[];autosize=1;strokeColor=none;fillColor=none;" vertex="1" parent="dNxyNK7c78bLwvsdeMH5-20">
          <mxGeometry x="30" y="95" width="80" height="40" as="geometry" />
        </mxCell>
        <mxCell id="zQRQU95U8ZfpVH5es0Fi-14" value="" style="points=[[0.25,0.25,0],[0.5,0,0],[0.75,0.25,0],[1,0.5,0],[0.75,0.75,0],[0.5,1,0],[0.25,0.75,0],[0,0.5,0]];shape=mxgraph.bpmn.gateway2;html=1;verticalLabelPosition=bottom;labelBackgroundColor=#ffffff;verticalAlign=top;align=center;perimeter=rhombusPerimeter;outlineConnect=0;outline=none;symbol=none;gwType=exclusive;" vertex="1" parent="dNxyNK7c78bLwvsdeMH5-20">
          <mxGeometry x="386" y="20" width="120" height="85" as="geometry" />
        </mxCell>
        <mxCell id="zQRQU95U8ZfpVH5es0Fi-15" value="New Query" style="text;html=1;align=center;verticalAlign=middle;resizable=0;points=[];autosize=1;strokeColor=none;fillColor=none;" vertex="1" parent="dNxyNK7c78bLwvsdeMH5-20">
          <mxGeometry x="406" y="-7.5" width="80" height="30" as="geometry" />
        </mxCell>
        <mxCell id="zQRQU95U8ZfpVH5es0Fi-122" style="edgeStyle=orthogonalEdgeStyle;rounded=0;orthogonalLoop=1;jettySize=auto;html=1;entryX=0;entryY=0.5;entryDx=0;entryDy=0;" edge="1" parent="dNxyNK7c78bLwvsdeMH5-20" source="zQRQU95U8ZfpVH5es0Fi-16" target="zQRQU95U8ZfpVH5es0Fi-26">
          <mxGeometry relative="1" as="geometry" />
        </mxCell>
        <mxCell id="zQRQU95U8ZfpVH5es0Fi-16" value="Yes" style="text;html=1;align=center;verticalAlign=middle;resizable=0;points=[];autosize=1;strokeColor=none;fillColor=none;" vertex="1" parent="dNxyNK7c78bLwvsdeMH5-20">
          <mxGeometry x="496" y="45" width="40" height="30" as="geometry" />
        </mxCell>
        <mxCell id="zQRQU95U8ZfpVH5es0Fi-103" style="edgeStyle=orthogonalEdgeStyle;rounded=0;orthogonalLoop=1;jettySize=auto;html=1;entryX=0.5;entryY=0;entryDx=0;entryDy=0;" edge="1" parent="dNxyNK7c78bLwvsdeMH5-20" source="zQRQU95U8ZfpVH5es0Fi-17" target="zQRQU95U8ZfpVH5es0Fi-100">
          <mxGeometry relative="1" as="geometry" />
        </mxCell>
        <mxCell id="zQRQU95U8ZfpVH5es0Fi-17" value="No" style="text;html=1;align=center;verticalAlign=middle;resizable=0;points=[];autosize=1;strokeColor=none;fillColor=none;" vertex="1" parent="dNxyNK7c78bLwvsdeMH5-20">
          <mxGeometry x="426" y="95" width="40" height="30" as="geometry" />
        </mxCell>
        <mxCell id="zQRQU95U8ZfpVH5es0Fi-27" style="edgeStyle=orthogonalEdgeStyle;rounded=0;orthogonalLoop=1;jettySize=auto;html=1;" edge="1" parent="dNxyNK7c78bLwvsdeMH5-20" target="zQRQU95U8ZfpVH5es0Fi-28">
          <mxGeometry relative="1" as="geometry">
            <mxPoint x="516" y="60" as="targetPoint" />
            <mxPoint x="666" y="60" as="sourcePoint" />
          </mxGeometry>
        </mxCell>
        <mxCell id="zQRQU95U8ZfpVH5es0Fi-26" value="Logging a query" style="rounded=0;whiteSpace=wrap;html=1;fontFamily=Helvetica;fontSize=12;fontColor=#000000;align=center;" vertex="1" parent="dNxyNK7c78bLwvsdeMH5-20">
          <mxGeometry x="596" y="20" width="130" height="80" as="geometry" />
        </mxCell>
        <mxCell id="zQRQU95U8ZfpVH5es0Fi-28" value="" style="points=[[0.25,0.25,0],[0.5,0,0],[0.75,0.25,0],[1,0.5,0],[0.75,0.75,0],[0.5,1,0],[0.25,0.75,0],[0,0.5,0]];shape=mxgraph.bpmn.gateway2;html=1;verticalLabelPosition=bottom;labelBackgroundColor=#ffffff;verticalAlign=top;align=center;perimeter=rhombusPerimeter;outlineConnect=0;outline=none;symbol=none;gwType=exclusive;" vertex="1" parent="dNxyNK7c78bLwvsdeMH5-20">
          <mxGeometry x="816" y="20" width="130" height="80" as="geometry" />
        </mxCell>
        <mxCell id="zQRQU95U8ZfpVH5es0Fi-29" value="Query logging complete" style="text;html=1;align=center;verticalAlign=middle;resizable=0;points=[];autosize=1;strokeColor=none;fillColor=none;" vertex="1" parent="dNxyNK7c78bLwvsdeMH5-20">
          <mxGeometry x="806" y="-7.5" width="150" height="30" as="geometry" />
        </mxCell>
        <mxCell id="zQRQU95U8ZfpVH5es0Fi-37" style="edgeStyle=orthogonalEdgeStyle;rounded=0;orthogonalLoop=1;jettySize=auto;html=1;entryX=0;entryY=0.5;entryDx=0;entryDy=0;" edge="1" parent="dNxyNK7c78bLwvsdeMH5-20" target="zQRQU95U8ZfpVH5es0Fi-38">
          <mxGeometry relative="1" as="geometry">
            <mxPoint x="636" y="60" as="targetPoint" />
            <mxPoint x="986" y="60" as="sourcePoint" />
          </mxGeometry>
        </mxCell>
        <mxCell id="zQRQU95U8ZfpVH5es0Fi-91" value="" style="edgeStyle=orthogonalEdgeStyle;rounded=0;orthogonalLoop=1;jettySize=auto;html=1;" edge="1" parent="dNxyNK7c78bLwvsdeMH5-20" target="zQRQU95U8ZfpVH5es0Fi-38">
          <mxGeometry relative="1" as="geometry">
            <mxPoint x="986" y="60" as="sourcePoint" />
          </mxGeometry>
        </mxCell>
        <mxCell id="zQRQU95U8ZfpVH5es0Fi-115" value="" style="edgeStyle=orthogonalEdgeStyle;rounded=0;orthogonalLoop=1;jettySize=auto;html=1;" edge="1" parent="dNxyNK7c78bLwvsdeMH5-20" source="zQRQU95U8ZfpVH5es0Fi-32" target="zQRQU95U8ZfpVH5es0Fi-38">
          <mxGeometry relative="1" as="geometry" />
        </mxCell>
        <mxCell id="zQRQU95U8ZfpVH5es0Fi-116" value="" style="edgeStyle=orthogonalEdgeStyle;rounded=0;orthogonalLoop=1;jettySize=auto;html=1;" edge="1" parent="dNxyNK7c78bLwvsdeMH5-20" target="zQRQU95U8ZfpVH5es0Fi-38">
          <mxGeometry relative="1" as="geometry">
            <mxPoint x="1006" y="60" as="sourcePoint" />
          </mxGeometry>
        </mxCell>
        <mxCell id="zQRQU95U8ZfpVH5es0Fi-32" value="Yes" style="text;html=1;align=center;verticalAlign=middle;resizable=0;points=[];autosize=1;strokeColor=none;fillColor=none;" vertex="1" parent="dNxyNK7c78bLwvsdeMH5-20">
          <mxGeometry x="936" y="45" width="40" height="30" as="geometry" />
        </mxCell>
        <mxCell id="zQRQU95U8ZfpVH5es0Fi-121" style="edgeStyle=orthogonalEdgeStyle;rounded=0;orthogonalLoop=1;jettySize=auto;html=1;" edge="1" parent="dNxyNK7c78bLwvsdeMH5-20" source="zQRQU95U8ZfpVH5es0Fi-33">
          <mxGeometry relative="1" as="geometry">
            <mxPoint x="881" y="180" as="targetPoint" />
          </mxGeometry>
        </mxCell>
        <mxCell id="zQRQU95U8ZfpVH5es0Fi-33" value="No" style="text;html=1;align=center;verticalAlign=middle;resizable=0;points=[];autosize=1;strokeColor=none;fillColor=none;" vertex="1" parent="dNxyNK7c78bLwvsdeMH5-20">
          <mxGeometry x="861" y="90" width="40" height="30" as="geometry" />
        </mxCell>
        <mxCell id="zQRQU95U8ZfpVH5es0Fi-35" value="Check and&amp;nbsp; update query" style="rounded=0;whiteSpace=wrap;html=1;fontFamily=Helvetica;fontSize=12;fontColor=#000000;align=center;" vertex="1" parent="dNxyNK7c78bLwvsdeMH5-20">
          <mxGeometry x="821" y="190" width="125" height="80" as="geometry" />
        </mxCell>
        <mxCell id="zQRQU95U8ZfpVH5es0Fi-38" value="Submit query to system" style="rounded=0;whiteSpace=wrap;html=1;fontFamily=Helvetica;fontSize=12;fontColor=#000000;align=center;" vertex="1" parent="dNxyNK7c78bLwvsdeMH5-20">
          <mxGeometry x="1066" y="20" width="124" height="80" as="geometry" />
        </mxCell>
        <mxCell id="zQRQU95U8ZfpVH5es0Fi-40" value="" style="whiteSpace=wrap;html=1;shape=mxgraph.basic.document" vertex="1" parent="dNxyNK7c78bLwvsdeMH5-20">
          <mxGeometry x="1276" y="40" width="30" height="40" as="geometry" />
        </mxCell>
        <mxCell id="zQRQU95U8ZfpVH5es0Fi-75" style="edgeStyle=orthogonalEdgeStyle;rounded=0;orthogonalLoop=1;jettySize=auto;html=1;entryX=0;entryY=0.5;entryDx=0;entryDy=0;entryPerimeter=0;dashed=1;dashPattern=1 2;" edge="1" parent="dNxyNK7c78bLwvsdeMH5-20" source="zQRQU95U8ZfpVH5es0Fi-38" target="zQRQU95U8ZfpVH5es0Fi-40">
          <mxGeometry relative="1" as="geometry" />
        </mxCell>
        <mxCell id="zQRQU95U8ZfpVH5es0Fi-132" style="edgeStyle=orthogonalEdgeStyle;rounded=0;orthogonalLoop=1;jettySize=auto;html=1;exitX=1;exitY=0.5;exitDx=0;exitDy=0;dashed=1;dashPattern=8 8;startArrow=oval;startFill=0;" edge="1" parent="dNxyNK7c78bLwvsdeMH5-20" source="zQRQU95U8ZfpVH5es0Fi-100">
          <mxGeometry relative="1" as="geometry">
            <mxPoint x="636" y="680" as="targetPoint" />
          </mxGeometry>
        </mxCell>
        <mxCell id="zQRQU95U8ZfpVH5es0Fi-100" value="Send email message to support team" style="rounded=0;whiteSpace=wrap;html=1;fontFamily=Helvetica;fontSize=12;fontColor=#000000;align=center;" vertex="1" parent="dNxyNK7c78bLwvsdeMH5-20">
          <mxGeometry x="383.5" y="190" width="125" height="80" as="geometry" />
        </mxCell>
        <mxCell id="zQRQU95U8ZfpVH5es0Fi-105" value="Review query" style="rounded=0;whiteSpace=wrap;html=1;fontFamily=Helvetica;fontSize=12;fontColor=#000000;align=center;" vertex="1" parent="dNxyNK7c78bLwvsdeMH5-20">
          <mxGeometry x="196" y="22.5" width="125" height="80" as="geometry" />
        </mxCell>
        <mxCell id="zQRQU95U8ZfpVH5es0Fi-125" style="edgeStyle=orthogonalEdgeStyle;rounded=0;orthogonalLoop=1;jettySize=auto;html=1;entryX=0;entryY=0.5;entryDx=0;entryDy=0;entryPerimeter=0;" edge="1" parent="dNxyNK7c78bLwvsdeMH5-20" source="zQRQU95U8ZfpVH5es0Fi-105" target="zQRQU95U8ZfpVH5es0Fi-14">
          <mxGeometry relative="1" as="geometry" />
        </mxCell>
        <mxCell id="zQRQU95U8ZfpVH5es0Fi-127" style="edgeStyle=orthogonalEdgeStyle;rounded=0;orthogonalLoop=1;jettySize=auto;html=1;entryX=-0.048;entryY=0.469;entryDx=0;entryDy=0;entryPerimeter=0;" edge="1" parent="dNxyNK7c78bLwvsdeMH5-20" source="zQRQU95U8ZfpVH5es0Fi-9" target="zQRQU95U8ZfpVH5es0Fi-105">
          <mxGeometry relative="1" as="geometry" />
        </mxCell>
        <mxCell id="zQRQU95U8ZfpVH5es0Fi-131" style="edgeStyle=orthogonalEdgeStyle;rounded=0;orthogonalLoop=1;jettySize=auto;html=1;entryX=0.623;entryY=1;entryDx=0;entryDy=0;entryPerimeter=0;" edge="1" parent="dNxyNK7c78bLwvsdeMH5-20" source="zQRQU95U8ZfpVH5es0Fi-35" target="zQRQU95U8ZfpVH5es0Fi-26">
          <mxGeometry relative="1" as="geometry" />
        </mxCell>
        <mxCell id="zQRQU95U8ZfpVH5es0Fi-146" value="Supporting file attached" style="text;html=1;align=center;verticalAlign=middle;resizable=0;points=[];autosize=1;strokeColor=none;fillColor=none;" vertex="1" parent="dNxyNK7c78bLwvsdeMH5-20">
          <mxGeometry x="1216" y="10" width="150" height="30" as="geometry" />
        </mxCell>
        <mxCell id="zQRQU95U8ZfpVH5es0Fi-147" value="" style="whiteSpace=wrap;html=1;shape=mxgraph.basic.document" vertex="1" parent="dNxyNK7c78bLwvsdeMH5-20">
          <mxGeometry x="266" y="210" width="30" height="40" as="geometry" />
        </mxCell>
        <mxCell id="zQRQU95U8ZfpVH5es0Fi-149" style="edgeStyle=orthogonalEdgeStyle;rounded=0;orthogonalLoop=1;jettySize=auto;html=1;entryX=1;entryY=0.5;entryDx=0;entryDy=0;entryPerimeter=0;dashed=1;dashPattern=1 2;" edge="1" parent="dNxyNK7c78bLwvsdeMH5-20" source="zQRQU95U8ZfpVH5es0Fi-100" target="zQRQU95U8ZfpVH5es0Fi-147">
          <mxGeometry relative="1" as="geometry" />
        </mxCell>
        <mxCell id="zQRQU95U8ZfpVH5es0Fi-150" value="Supporting file attached" style="text;html=1;align=center;verticalAlign=middle;resizable=0;points=[];autosize=1;strokeColor=none;fillColor=none;" vertex="1" parent="dNxyNK7c78bLwvsdeMH5-20">
          <mxGeometry x="206" y="180" width="150" height="30" as="geometry" />
        </mxCell>
        <mxCell id="dNxyNK7c78bLwvsdeMH5-21" value="Current System" style="swimlane;html=1;startSize=20;horizontal=0;" parent="dNxyNK7c78bLwvsdeMH5-19" vertex="1">
          <mxGeometry x="20" y="290" width="1366" height="230" as="geometry" />
        </mxCell>
        <mxCell id="dNxyNK7c78bLwvsdeMH5-30" value="Creates a formal query request to support team" style="rounded=0;whiteSpace=wrap;html=1;fontFamily=Helvetica;fontSize=12;fontColor=#000000;align=center;" parent="dNxyNK7c78bLwvsdeMH5-21" vertex="1">
          <mxGeometry x="1066" y="75" width="124" height="80" as="geometry" />
        </mxCell>
        <mxCell id="zQRQU95U8ZfpVH5es0Fi-77" style="edgeStyle=orthogonalEdgeStyle;rounded=0;orthogonalLoop=1;jettySize=auto;html=1;entryX=0.5;entryY=0;entryDx=0;entryDy=0;startArrow=none;startFill=0;" edge="1" parent="dNxyNK7c78bLwvsdeMH5-19" source="zQRQU95U8ZfpVH5es0Fi-38" target="dNxyNK7c78bLwvsdeMH5-30">
          <mxGeometry relative="1" as="geometry" />
        </mxCell>
        <mxCell id="zQRQU95U8ZfpVH5es0Fi-45" value="Current Process" style="text;html=1;align=center;verticalAlign=middle;resizable=0;points=[];autosize=1;strokeColor=none;fillColor=none;" vertex="1" parent="1">
          <mxGeometry x="600" y="-20" width="110" height="30" as="geometry" />
        </mxCell>
        <mxCell id="zQRQU95U8ZfpVH5es0Fi-47" value="Support Team" style="swimlane;startSize=20;horizontal=0;html=1;whiteSpace=wrap;" vertex="1" parent="1">
          <mxGeometry x="20" y="590" width="1390" height="660" as="geometry" />
        </mxCell>
        <mxCell id="zQRQU95U8ZfpVH5es0Fi-135" style="edgeStyle=orthogonalEdgeStyle;rounded=0;orthogonalLoop=1;jettySize=auto;html=1;entryX=1;entryY=0.5;entryDx=0;entryDy=0;" edge="1" parent="zQRQU95U8ZfpVH5es0Fi-47" source="zQRQU95U8ZfpVH5es0Fi-49" target="zQRQU95U8ZfpVH5es0Fi-51">
          <mxGeometry relative="1" as="geometry" />
        </mxCell>
        <mxCell id="zQRQU95U8ZfpVH5es0Fi-49" value="Receive the query request" style="rounded=0;whiteSpace=wrap;html=1;fontFamily=Helvetica;fontSize=12;fontColor=#000000;align=center;" vertex="1" parent="zQRQU95U8ZfpVH5es0Fi-47">
          <mxGeometry x="1090" y="130" width="120" height="90" as="geometry" />
        </mxCell>
        <mxCell id="zQRQU95U8ZfpVH5es0Fi-51" value="Review the query" style="rounded=0;whiteSpace=wrap;html=1;fontFamily=Helvetica;fontSize=12;fontColor=#000000;align=center;" vertex="1" parent="zQRQU95U8ZfpVH5es0Fi-47">
          <mxGeometry x="600" y="130" width="120" height="90" as="geometry" />
        </mxCell>
        <mxCell id="zQRQU95U8ZfpVH5es0Fi-54" value="Clarity required" style="text;html=1;align=center;verticalAlign=middle;resizable=0;points=[];autosize=1;strokeColor=none;fillColor=none;" vertex="1" parent="zQRQU95U8ZfpVH5es0Fi-47">
          <mxGeometry x="350" y="100" width="100" height="30" as="geometry" />
        </mxCell>
        <mxCell id="zQRQU95U8ZfpVH5es0Fi-63" value="" style="points=[[0.145,0.145,0],[0.5,0,0],[0.855,0.145,0],[1,0.5,0],[0.855,0.855,0],[0.5,1,0],[0.145,0.855,0],[0,0.5,0]];shape=mxgraph.bpmn.event;html=1;verticalLabelPosition=bottom;labelBackgroundColor=#ffffff;verticalAlign=top;align=center;perimeter=ellipsePerimeter;outlineConnect=0;aspect=fixed;outline=end;symbol=terminate2;" vertex="1" parent="zQRQU95U8ZfpVH5es0Fi-47">
          <mxGeometry x="345" y="510" width="110" height="110" as="geometry" />
        </mxCell>
        <mxCell id="zQRQU95U8ZfpVH5es0Fi-64" value="Process end" style="text;html=1;align=center;verticalAlign=middle;resizable=0;points=[];autosize=1;strokeColor=none;fillColor=none;" vertex="1" parent="zQRQU95U8ZfpVH5es0Fi-47">
          <mxGeometry x="355" y="620" width="90" height="30" as="geometry" />
        </mxCell>
        <mxCell id="zQRQU95U8ZfpVH5es0Fi-134" style="edgeStyle=orthogonalEdgeStyle;rounded=0;orthogonalLoop=1;jettySize=auto;html=1;entryX=0.5;entryY=0;entryDx=0;entryDy=0;dashed=1;dashPattern=8 8;startArrow=oval;startFill=0;" edge="1" parent="zQRQU95U8ZfpVH5es0Fi-47" target="zQRQU95U8ZfpVH5es0Fi-49">
          <mxGeometry relative="1" as="geometry">
            <mxPoint x="1150" y="130" as="targetPoint" />
            <mxPoint x="1149.5" y="-105" as="sourcePoint" />
          </mxGeometry>
        </mxCell>
        <mxCell id="zQRQU95U8ZfpVH5es0Fi-136" value="" style="points=[[0.25,0.25,0],[0.5,0,0],[0.75,0.25,0],[1,0.5,0],[0.75,0.75,0],[0.5,1,0],[0.25,0.75,0],[0,0.5,0]];shape=mxgraph.bpmn.gateway2;html=1;verticalLabelPosition=bottom;labelBackgroundColor=#ffffff;verticalAlign=top;align=center;perimeter=rhombusPerimeter;outlineConnect=0;outline=none;symbol=none;gwType=exclusive;" vertex="1" parent="zQRQU95U8ZfpVH5es0Fi-47">
          <mxGeometry x="340" y="130" width="120" height="90" as="geometry" />
        </mxCell>
        <mxCell id="zQRQU95U8ZfpVH5es0Fi-137" style="edgeStyle=orthogonalEdgeStyle;rounded=0;orthogonalLoop=1;jettySize=auto;html=1;entryX=1;entryY=0.5;entryDx=0;entryDy=0;entryPerimeter=0;" edge="1" parent="zQRQU95U8ZfpVH5es0Fi-47" source="zQRQU95U8ZfpVH5es0Fi-51" target="zQRQU95U8ZfpVH5es0Fi-136">
          <mxGeometry relative="1" as="geometry" />
        </mxCell>
        <mxCell id="zQRQU95U8ZfpVH5es0Fi-141" style="edgeStyle=orthogonalEdgeStyle;rounded=0;orthogonalLoop=1;jettySize=auto;html=1;entryX=1;entryY=0.5;entryDx=0;entryDy=0;" edge="1" parent="zQRQU95U8ZfpVH5es0Fi-47" source="zQRQU95U8ZfpVH5es0Fi-138" target="zQRQU95U8ZfpVH5es0Fi-140">
          <mxGeometry relative="1" as="geometry" />
        </mxCell>
        <mxCell id="zQRQU95U8ZfpVH5es0Fi-138" value="Yes" style="text;html=1;align=center;verticalAlign=middle;resizable=0;points=[];autosize=1;strokeColor=none;fillColor=none;" vertex="1" parent="zQRQU95U8ZfpVH5es0Fi-47">
          <mxGeometry x="300" y="160" width="40" height="30" as="geometry" />
        </mxCell>
        <mxCell id="zQRQU95U8ZfpVH5es0Fi-144" style="edgeStyle=orthogonalEdgeStyle;rounded=0;orthogonalLoop=1;jettySize=auto;html=1;entryX=0.5;entryY=0;entryDx=0;entryDy=0;" edge="1" parent="zQRQU95U8ZfpVH5es0Fi-47" source="zQRQU95U8ZfpVH5es0Fi-139" target="zQRQU95U8ZfpVH5es0Fi-142">
          <mxGeometry relative="1" as="geometry" />
        </mxCell>
        <mxCell id="zQRQU95U8ZfpVH5es0Fi-139" value="No" style="text;html=1;align=center;verticalAlign=middle;resizable=0;points=[];autosize=1;strokeColor=none;fillColor=none;" vertex="1" parent="zQRQU95U8ZfpVH5es0Fi-47">
          <mxGeometry x="380" y="210" width="40" height="30" as="geometry" />
        </mxCell>
        <mxCell id="zQRQU95U8ZfpVH5es0Fi-140" value="Sends mail to TechBridge User(Staff)" style="rounded=0;whiteSpace=wrap;html=1;fontFamily=Helvetica;fontSize=12;fontColor=#000000;align=center;" vertex="1" parent="zQRQU95U8ZfpVH5es0Fi-47">
          <mxGeometry x="120" y="130" width="120" height="90" as="geometry" />
        </mxCell>
        <mxCell id="zQRQU95U8ZfpVH5es0Fi-142" value="Resolves the query" style="rounded=0;whiteSpace=wrap;html=1;fontFamily=Helvetica;fontSize=12;fontColor=#000000;align=center;" vertex="1" parent="zQRQU95U8ZfpVH5es0Fi-47">
          <mxGeometry x="340" y="330" width="120" height="90" as="geometry" />
        </mxCell>
        <mxCell id="zQRQU95U8ZfpVH5es0Fi-143" style="edgeStyle=orthogonalEdgeStyle;rounded=0;orthogonalLoop=1;jettySize=auto;html=1;entryX=0.5;entryY=0;entryDx=0;entryDy=0;entryPerimeter=0;" edge="1" parent="zQRQU95U8ZfpVH5es0Fi-47" source="zQRQU95U8ZfpVH5es0Fi-142" target="zQRQU95U8ZfpVH5es0Fi-63">
          <mxGeometry relative="1" as="geometry" />
        </mxCell>
        <mxCell id="zQRQU95U8ZfpVH5es0Fi-151" value="" style="whiteSpace=wrap;html=1;shape=mxgraph.basic.document" vertex="1" parent="zQRQU95U8ZfpVH5es0Fi-47">
          <mxGeometry x="165" y="310" width="30" height="40" as="geometry" />
        </mxCell>
        <mxCell id="zQRQU95U8ZfpVH5es0Fi-152" style="edgeStyle=orthogonalEdgeStyle;rounded=0;orthogonalLoop=1;jettySize=auto;html=1;entryX=0.5;entryY=0;entryDx=0;entryDy=0;entryPerimeter=0;dashed=1;dashPattern=1 2;" edge="1" parent="zQRQU95U8ZfpVH5es0Fi-47" source="zQRQU95U8ZfpVH5es0Fi-140" target="zQRQU95U8ZfpVH5es0Fi-151">
          <mxGeometry relative="1" as="geometry" />
        </mxCell>
        <mxCell id="zQRQU95U8ZfpVH5es0Fi-153" value="Supporting file attached" style="text;html=1;align=center;verticalAlign=middle;resizable=0;points=[];autosize=1;strokeColor=none;fillColor=none;" vertex="1" parent="zQRQU95U8ZfpVH5es0Fi-47">
          <mxGeometry x="100" y="350" width="150" height="30" as="geometry" />
        </mxCell>
        <mxCell id="zQRQU95U8ZfpVH5es0Fi-145" style="edgeStyle=orthogonalEdgeStyle;rounded=0;orthogonalLoop=1;jettySize=auto;html=1;entryX=0.136;entryY=0.994;entryDx=0;entryDy=0;entryPerimeter=0;startArrow=oval;startFill=0;dashed=1;dashPattern=8 8;" edge="1" parent="1" source="zQRQU95U8ZfpVH5es0Fi-140" target="zQRQU95U8ZfpVH5es0Fi-105">
          <mxGeometry relative="1" as="geometry" />
        </mxCell>
      </root>
    </mxGraphModel>
  </diagram>
</mxfile>
